<svg id="Umcibisholo" xmlns="http://www.w3.org/2000/svg" viewBox="0 0 658.73 526.37"><defs><style>.cls-1{fill:#becb0a;}.cls-2{fill:#fff;}</style></defs><title>detail. logo</title><path id="Slave" class="cls-1" d="M348.17,535.81c-.1,0,126.68-36.21,187.12-54.09,11.88-3.51,24.22-6.4,36-10.1,12.85-3.52,23.16-1.49,33.29,6.42,10.87,9.19,61.19,54.19,67.8,60A41.57,41.57,0,0,1,679,556.55,48,48,0,0,1,674.71,583c-8.37,17.56-24.73,29.77-45.25,30.18-7.92.15-15.33-1.83-22.76-3.92C581,602,358.2,538.74,348.17,535.81Z" transform="translate(-20.64 -86.82)"/><path id="Master" class="cls-2" d="M673.35,539c-.86-1.24-65.72-59.06-70.88-62.63-6.61-4.58-14.06-7.13-22.22-6.3a71.86,71.86,0,0,0-12.3,2.47C546,478.85,87,611.2,80.08,612.4a51.06,51.06,0,0,1-58.17-39.3c-3.08-14.22-.55-27.44,7.37-39.7C46.77,506.36,284.49,137,294,121.84a77,77,0,0,1,34.64-30.32c15.54-6.91,30.68-6,45.73,1.37a76.26,76.26,0,0,1,31.29,28.39C415.35,136.51,673.53,538.87,673.35,539Z" transform="translate(-20.64 -86.82)"/></svg>